<svg width="50" height="50" viewBox="0 0 50 50" fill="none" xmlns="http://www.w3.org/2000/svg">
<path fill-rule="evenodd" clip-rule="evenodd" d="M27.0023 14.809C27.0023 15.6371 26.3869 16.3352 25.5471 16.5499C29.8107 16.8044 33.1818 20.0118 33.1818 23.9311V29.6025C33.1818 30.928 33.2416 31.9983 34.4974 32.5661C34.8745 32.7366 35.0725 33.1191 34.9756 33.4901C34.8787 33.8612 34.5125 34.1232 34.0909 34.1232H26.2026C26.5801 34.4244 26.8181 34.8651 26.8181 35.3561C26.8181 36.264 26.0041 37 25 37C23.9958 37 23.1818 36.264 23.1818 35.3561C23.1818 34.8651 23.4199 34.4244 23.7973 34.1232H15.9092C15.4876 34.1232 15.1213 33.8612 15.0244 33.4901C14.9275 33.1191 15.1255 32.7366 15.5026 32.5661C16.7584 31.9983 16.8183 30.928 16.8183 29.6025V23.9311C16.8183 20.0111 20.1906 16.8032 24.4553 16.5498C23.6158 16.3349 23.0007 15.6369 23.0007 14.809C23.0007 13.8099 23.8965 13 25.0015 13C26.1065 13 27.0023 13.8099 27.0023 14.809ZM25 18.1775C21.4855 18.1775 18.6364 20.7535 18.6364 23.9311V29.6025L18.6365 29.6862C18.6374 30.4184 18.6386 31.5068 18.0897 32.4793H31.9103C31.3614 31.5068 31.3627 30.4184 31.3636 29.6862V29.6025V23.9311C31.3636 20.7535 28.5145 18.1775 25 18.1775Z" fill="#747474"/>
<circle cx="31" cy="21" r="4" fill="#DA4848"/>
<rect x="0.5" y="0.5" width="49" height="49" rx="24.5" stroke="#929292"/>
</svg>
