<svg width="422" height="325" viewBox="0 0 422 325" fill="none" xmlns="http://www.w3.org/2000/svg">
<path fill-rule="evenodd" clip-rule="evenodd" d="M6.08122 -131.954C0.86384 -166.913 -0.91987 -202.454 0.869228 -238.04L252.447 -665.279C282.698 -684.105 314.643 -699.786 347.745 -712.181L6.08122 -131.954ZM277.555 258.5C294.837 268.027 312.43 276.499 330.258 283.937L868.68 -630.432C853.528 -642.414 837.585 -653.689 820.871 -664.18L277.555 258.5ZM452.188 318.475C432.082 315.301 412.053 310.955 392.198 305.414L917.506 -586.685C931.983 -572.01 945.498 -556.603 958.027 -540.56L452.188 318.475ZM523.021 324.851C546.25 325.388 569.43 324.408 592.409 321.951L1029.08 -419.626C1020.09 -440.913 1009.7 -461.658 997.962 -481.712L523.021 324.851ZM762.535 274.643C734.696 287.613 705.829 298.156 676.284 306.179L1055.98 -338.629C1063.29 -308.901 1068.07 -278.544 1070.24 -247.908L762.535 274.643ZM882.221 198.053C926.872 160.217 966.034 114.36 997.409 61.078C1028.78 7.79587 1049.89 -48.694 1061.32 -106.093L882.221 198.053ZM764.486 -695.092L223.174 224.187C207.044 212.617 191.726 200.278 177.242 187.252L709.907 -717.342C728.325 -710.994 746.545 -703.584 764.486 -695.092ZM130.634 139.736L645.748 -735.05C625.094 -739.381 604.312 -742.453 583.511 -744.295L92.3607 89.7951C104.062 107.092 116.829 123.774 130.634 139.736ZM55.3451 25.9897C44.5438 4.0082 35.2774 -18.6532 27.5919 -41.8172L437.002 -737.093C460.986 -741.608 485.298 -744.497 509.759 -745.714L55.3451 25.9897Z" fill="#3CCCEC" fill-opacity="0.35"/>
</svg>
