<svg width="964" height="193" viewBox="0 0 964 193" fill="none" xmlns="http://www.w3.org/2000/svg">
<path fill-rule="evenodd" clip-rule="evenodd" d="M-1.96592 -23.3327C-23.1108 -51.6571 -41.5068 -82.1198 -56.7766 -114.313L-37.4198 -609.742C-19.6847 -640.645 1.03187 -669.58 24.3223 -696.168L-1.96592 -23.3327ZM421.998 192.09C441.73 192.301 461.238 191.436 480.463 189.548L521.89 -870.759C502.871 -874.142 483.49 -876.526 463.801 -877.855L421.998 192.09ZM604.216 162.251C585.002 168.973 565.302 174.627 545.19 179.145L585.608 -855.338C605.306 -849.265 624.505 -842.091 643.136 -833.89L604.216 162.251ZM669.627 134.337C690.343 123.814 710.297 111.978 729.376 98.9356L762.974 -761.002C744.971 -775.494 726.002 -788.85 706.17 -800.958L669.627 134.337ZM856.837 -23.271C838.455 1.33255 818.018 24.284 795.791 45.3375L825.005 -702.386C845.522 -679.662 864.106 -655.186 880.512 -629.224L856.837 -23.271ZM926.008 -147.393C947.428 -201.858 960.216 -260.79 962.63 -322.576C965.044 -384.363 956.893 -444.112 939.787 -500.083L926.008 -147.393ZM399.501 -878.392L357.852 187.608C338.167 185.052 318.833 181.435 299.908 176.817L340.892 -872.155C360.12 -875.282 379.677 -877.38 399.501 -878.392ZM236.36 157.026L275.994 -857.382C255.751 -851.418 235.991 -844.287 216.796 -836.063L179.006 131.153C197.501 140.85 216.644 149.501 236.36 157.026ZM116.196 92.4721C96.276 78.2227 77.3861 62.6478 59.6509 45.8818L91.1515 -760.364C110.141 -775.695 130.188 -789.749 151.159 -802.4L116.196 92.4721Z" fill="#3CCCEC"/>
</svg>
