<svg width="18" height="17" viewBox="0 0 18 17" fill="none" xmlns="http://www.w3.org/2000/svg">
<path d="M2.33545 5.68066L4.04971 5.04166L4.1841 5.78643H2.33545V5.68066ZM9.28809 11.2489V11.2494C9.28809 12.9649 10.6782 14.3539 12.394 14.3539C14.11 14.3539 15.5 12.9633 15.5 11.2494C15.5 9.53369 14.1082 8.14494 12.394 8.14494C10.6792 8.14494 9.28983 9.53569 9.28809 11.2489ZM12.394 8.08793C14.1411 8.08793 15.5576 9.50402 15.5576 11.2494C15.5576 12.9948 14.1411 14.4109 12.394 14.4109C10.647 14.4109 9.23047 12.9948 9.23047 11.2494C9.23047 9.50402 10.647 8.08793 12.394 8.08793ZM12.394 10.9837C12.5415 10.9837 12.6602 11.1027 12.6602 11.2494C12.6602 11.3961 12.5415 11.5151 12.394 11.5151C12.2466 11.5151 12.1279 11.3961 12.1279 11.2494C12.1279 11.1027 12.2466 10.9837 12.394 10.9837Z" stroke="black"/>
</svg>
